<svg width="24" height="25" viewBox="0 0 24 25" fill="none" xmlns="http://www.w3.org/2000/svg">
<g id="Social icon" clip-path="url(#clip0_1_6402)">
<path id="Vector" d="M24 12.5229C24 5.89553 18.6274 0.522949 12 0.522949C5.37258 0.522949 0 5.89553 0 12.5229C0 18.5124 4.3882 23.4769 10.125 24.3772V15.9917H7.07812V12.5229H10.125V9.8792C10.125 6.8717 11.9166 5.21045 14.6576 5.21045C15.9701 5.21045 17.3438 5.44482 17.3438 5.44482V8.39795H15.8306C14.34 8.39795 13.875 9.32303 13.875 10.2729V12.5229H17.2031L16.6711 15.9917H13.875V24.3772C19.6118 23.4769 24 18.5124 24 12.5229Z" fill="#98A2B3"/>
</g>
<defs>
<clipPath id="clip0_1_6402">
<rect width="24" height="24" fill="white" transform="translate(0 0.522949)"/>
</clipPath>
</defs>
</svg>
