<svg width="24" height="25" viewBox="0 0 24 25" fill="none" xmlns="http://www.w3.org/2000/svg">
<g id="Social icon" clip-path="url(#clip0_1_6403)">
<g id="Group">
<path id="Vector" d="M12 2.68389C15.2063 2.68389 15.5859 2.69795 16.8469 2.7542C18.0188 2.80576 18.6516 3.00264 19.0734 3.1667C19.6313 3.38232 20.0344 3.64482 20.4516 4.06201C20.8734 4.48389 21.1313 4.88232 21.3469 5.44014C21.5109 5.86201 21.7078 6.49951 21.7594 7.6667C21.8156 8.93232 21.8297 9.31201 21.8297 12.5136C21.8297 15.7198 21.8156 16.0995 21.7594 17.3605C21.7078 18.5323 21.5109 19.1651 21.3469 19.587C21.1313 20.1448 20.8687 20.548 20.4516 20.9651C20.0297 21.387 19.6313 21.6448 19.0734 21.8605C18.6516 22.0245 18.0141 22.2214 16.8469 22.2729C15.5813 22.3292 15.2016 22.3433 12 22.3433C8.79375 22.3433 8.41406 22.3292 7.15313 22.2729C5.98125 22.2214 5.34844 22.0245 4.92656 21.8605C4.36875 21.6448 3.96563 21.3823 3.54844 20.9651C3.12656 20.5433 2.86875 20.1448 2.65313 19.587C2.48906 19.1651 2.29219 18.5276 2.24063 17.3605C2.18438 16.0948 2.17031 15.7151 2.17031 12.5136C2.17031 9.30732 2.18438 8.92764 2.24063 7.6667C2.29219 6.49482 2.48906 5.86201 2.65313 5.44014C2.86875 4.88232 3.13125 4.4792 3.54844 4.06201C3.97031 3.64014 4.36875 3.38232 4.92656 3.1667C5.34844 3.00264 5.98594 2.80576 7.15313 2.7542C8.41406 2.69795 8.79375 2.68389 12 2.68389ZM12 0.522949C8.74219 0.522949 8.33438 0.537012 7.05469 0.593262C5.77969 0.649512 4.90313 0.855762 4.14375 1.15107C3.35156 1.46045 2.68125 1.86826 2.01563 2.53857C1.34531 3.2042 0.9375 3.87451 0.628125 4.66201C0.332812 5.42607 0.126563 6.29795 0.0703125 7.57295C0.0140625 8.85732 0 9.26514 0 12.5229C0 15.7808 0.0140625 16.1886 0.0703125 17.4683C0.126563 18.7433 0.332812 19.6198 0.628125 20.3792C0.9375 21.1714 1.34531 21.8417 2.01563 22.5073C2.68125 23.1729 3.35156 23.5854 4.13906 23.8901C4.90313 24.1854 5.775 24.3917 7.05 24.4479C8.32969 24.5042 8.7375 24.5183 11.9953 24.5183C15.2531 24.5183 15.6609 24.5042 16.9406 24.4479C18.2156 24.3917 19.0922 24.1854 19.8516 23.8901C20.6391 23.5854 21.3094 23.1729 21.975 22.5073C22.6406 21.8417 23.0531 21.1714 23.3578 20.3839C23.6531 19.6198 23.8594 18.7479 23.9156 17.4729C23.9719 16.1933 23.9859 15.7854 23.9859 12.5276C23.9859 9.26982 23.9719 8.86201 23.9156 7.58232C23.8594 6.30732 23.6531 5.43076 23.3578 4.67139C23.0625 3.87451 22.6547 3.2042 21.9844 2.53857C21.3188 1.87295 20.6484 1.46045 19.8609 1.15576C19.0969 0.860449 18.225 0.654199 16.95 0.597949C15.6656 0.537012 15.2578 0.522949 12 0.522949Z" fill="#98A2B3"/>
<path id="Vector_2" d="M12 6.35889C8.59688 6.35889 5.83594 9.11982 5.83594 12.5229C5.83594 15.9261 8.59688 18.687 12 18.687C15.4031 18.687 18.1641 15.9261 18.1641 12.5229C18.1641 9.11982 15.4031 6.35889 12 6.35889ZM12 16.5214C9.79219 16.5214 8.00156 14.7308 8.00156 12.5229C8.00156 10.3151 9.79219 8.52451 12 8.52451C14.2078 8.52451 15.9984 10.3151 15.9984 12.5229C15.9984 14.7308 14.2078 16.5214 12 16.5214Z" fill="#98A2B3"/>
<path id="Vector_3" d="M19.8469 6.11485C19.8469 6.91172 19.2 7.55391 18.4078 7.55391C17.6109 7.55391 16.9688 6.90703 16.9688 6.11485C16.9688 5.31797 17.6156 4.67578 18.4078 4.67578C19.2 4.67578 19.8469 5.32266 19.8469 6.11485Z" fill="#98A2B3"/>
</g>
</g>
<defs>
<clipPath id="clip0_1_6403">
<rect width="24" height="24" fill="white" transform="translate(0 0.522949)"/>
</clipPath>
</defs>
</svg>
