<svg width="164" height="38" viewBox="0 0 164 38" fill="none" xmlns="http://www.w3.org/2000/svg">
<g filter="url(#filter0_dd_1_6414)">
<rect x="3.15" y="2.15" width="31.7" height="31.7" rx="7.85" fill="white"/>
<rect x="3.15" y="2.15" width="31.7" height="31.7" rx="7.85" fill="url(#paint0_linear_1_6414)"/>
<path d="M18.9992 13.8505C18.9992 13.5726 19.1814 13.3276 19.4476 13.2478L29.2001 10.3221C29.6038 10.2009 30.0101 10.5032 30.0101 10.9247V22.3553C30.0101 22.6316 29.8298 22.8756 29.5656 22.9567L19.8131 25.9522C19.4086 26.0764 18.9992 25.7739 18.9992 25.3507V13.8505Z" fill="#4E48E0"/>
<path d="M18.9992 13.7054C18.9992 13.5026 19.0969 13.3122 19.2617 13.1941L26.3402 8.11896C26.7565 7.82046 27.336 8.11802 27.336 8.63031V20.295C27.336 20.4978 27.2382 20.6881 27.0734 20.8063L19.995 25.8814C19.5787 26.1799 18.9992 25.8823 18.9992 25.3701V13.7054Z" fill="#5CC4CD"/>
<path d="M18.9992 13.8505V25.3507C18.9992 25.7739 19.4086 26.0764 19.8131 25.9522L19.953 25.9092C19.9672 25.9006 19.9812 25.8913 19.995 25.8814L27.0734 20.8063C27.2382 20.6881 27.336 20.4978 27.336 20.295V10.8813L19.4476 13.2478C19.1814 13.3276 18.9992 13.5726 18.9992 13.8505Z" fill="#1C81C1"/>
<path d="M18.9992 13.8505C18.9992 13.5726 18.8169 13.3276 18.5508 13.2478L8.79827 10.3221C8.39458 10.2009 7.98828 10.5032 7.98828 10.9247V22.3553C7.98828 22.6316 8.16858 22.8756 8.43274 22.9567L18.1852 25.9522C18.5898 26.0764 18.9992 25.7739 18.9992 25.3507V13.8505Z" fill="#4E48E0"/>
<path d="M18.9992 13.7054C18.9992 13.5026 18.9014 13.3122 18.7366 13.1941L11.6582 8.11896C11.2418 7.82046 10.6624 8.11802 10.6624 8.63031V20.295C10.6624 20.4978 10.7601 20.6881 10.9249 20.8063L18.0034 25.8814C18.4197 26.1799 18.9992 25.8823 18.9992 25.3701V13.7054Z" fill="#5CC4CD"/>
<path d="M18.9992 13.8505V25.3507C18.9992 25.7739 18.5898 26.0764 18.1852 25.9522L18.0453 25.9093C18.0312 25.9007 18.0172 25.8913 18.0034 25.8814L10.9249 20.8063C10.7601 20.6881 10.6624 20.4978 10.6624 20.295V10.8814L18.5508 13.2478C18.8169 13.3276 18.9992 13.5726 18.9992 13.8505Z" fill="#1C81C1"/>
<g filter="url(#filter1_b_1_6414)">
<path d="M3 22H35C35 25.7275 35 27.5913 34.391 29.0615C33.5791 31.0217 32.0217 32.5791 30.0615 33.391C28.5913 34 26.7275 34 23 34H15C11.2725 34 9.4087 34 7.93853 33.391C5.97831 32.5791 4.42092 31.0217 3.60896 29.0615C3 27.5913 3 25.7275 3 22Z" fill="white" fill-opacity="0.2"/>
</g>
<rect x="3.15" y="2.15" width="31.7" height="31.7" rx="7.85" stroke="#D0D5DD" stroke-width="0.3"/>
</g>
<path d="M63.8906 27.375H61.1602V19.6992C61.1602 18.957 60.8984 18.3242 60.375 17.8008C59.8516 17.2773 59.2227 17.0156 58.4883 17.0156C57.7461 17.0156 57.1133 17.2773 56.5898 17.8008C56.0742 18.3242 55.8125 18.9531 55.8047 19.6875V27.375H53.0742V19.6992C53.0742 18.957 52.8164 18.3242 52.3008 17.8008C51.7773 17.2773 51.1445 17.0156 50.4023 17.0156C49.6602 17.0156 49.0273 17.2773 48.5039 17.8008C47.9883 18.3242 47.7305 18.957 47.7305 19.6992V27.375H45V14.4375H47.7305V14.9883C48.5586 14.5195 49.4492 14.2852 50.4023 14.2852C51.3008 14.2852 52.1445 14.4961 52.9336 14.918C53.3477 15.1211 53.8516 15.5117 54.4453 16.0898C54.9141 15.582 55.4141 15.1914 55.9453 14.918C56.75 14.4961 57.5977 14.2852 58.4883 14.2852C59.9727 14.2852 61.2461 14.8164 62.3086 15.8789C63.3633 16.9336 63.8906 18.207 63.8906 19.6992V27.375Z" fill="#3A3945"/>
<path d="M73.0195 17.0156C71.9492 17.0156 71.0312 17.3984 70.2656 18.1641C69.5078 18.9219 69.1289 19.8398 69.1289 20.918C69.1289 21.9961 69.5078 22.9141 70.2656 23.6719C71.0234 24.4297 71.9414 24.8086 73.0195 24.8086C74.0977 24.8086 75.0195 24.4297 75.7852 23.6719C76.543 22.9141 76.9219 21.9961 76.9219 20.918C76.9219 19.8398 76.543 18.9219 75.7852 18.1641C75.0195 17.3984 74.0977 17.0156 73.0195 17.0156ZM73.0195 27.5391C71.1992 27.5391 69.6406 26.8906 68.3438 25.5938C67.0469 24.2969 66.3984 22.7383 66.3984 20.918C66.3984 19.0898 67.0469 17.5273 68.3438 16.2305C69.6406 14.9336 71.1992 14.2852 73.0195 14.2852C74.8555 14.2852 76.1562 14.668 76.9219 15.4336V14.4375H79.6523V27.375H76.9219V26.3906C76.1562 27.1562 74.8555 27.5391 73.0195 27.5391Z" fill="#3A3945"/>
<path d="M83.0391 14.4375H85.7695V27.375H83.0391V14.4375ZM84.3984 13.4062C83.9453 13.4062 83.5547 13.2422 83.2266 12.9141C82.8984 12.5859 82.7344 12.1953 82.7344 11.7422C82.7344 11.2812 82.8984 10.8867 83.2266 10.5586C83.5547 10.2305 83.9453 10.0664 84.3984 10.0664C84.8594 10.0664 85.2539 10.2305 85.582 10.5586C85.9102 10.8867 86.0742 11.2812 86.0742 11.7422C86.0742 12.1953 85.9102 12.5859 85.582 12.9141C85.2539 13.2422 84.8594 13.4062 84.3984 13.4062Z" fill="#3A3945"/>
<path d="M89.1328 9H91.875V27.375H89.1328V9Z" fill="#3A3945"/>
<path d="M105.656 20.9297C105.656 19.8516 105.273 18.9297 104.508 18.1641C103.742 17.3984 102.82 17.0156 101.742 17.0156C100.664 17.0156 99.7422 17.3984 98.9766 18.1641C98.2188 18.9219 97.8398 19.8438 97.8398 20.9297C97.8398 22.0078 98.2188 22.9297 98.9766 23.6953C99.7422 24.4531 100.664 24.832 101.742 24.832C102.828 24.832 103.75 24.4531 104.508 23.6953C105.273 22.9297 105.656 22.0078 105.656 20.9297ZM108.387 20.9062C108.387 22.7266 107.738 24.2852 106.441 25.582C105.145 26.8867 103.586 27.5391 101.766 27.5391C99.9219 27.5391 98.6211 27.1523 97.8633 26.3789V27.375H95.1328V9H97.8633V15.4219C98.6289 14.6562 99.9297 14.2734 101.766 14.2734C103.586 14.2734 105.145 14.9219 106.441 16.2188C107.738 17.5156 108.387 19.0781 108.387 20.9062Z" fill="#3A3945"/>
<path d="M116.977 17.0156C115.898 17.0156 114.98 17.3945 114.223 18.1523C113.457 18.918 113.074 19.8359 113.074 20.9062C113.074 21.9844 113.457 22.9062 114.223 23.6719C114.98 24.4297 115.898 24.8086 116.977 24.8086C118.055 24.8086 118.973 24.4297 119.73 23.6719C120.488 22.9062 120.867 21.9844 120.867 20.9062C120.867 19.8281 120.488 18.9102 119.73 18.1523C118.973 17.3945 118.055 17.0156 116.977 17.0156ZM116.977 27.5391C115.148 27.5391 113.586 26.8906 112.289 25.5938C110.992 24.2969 110.344 22.7344 110.344 20.9062C110.344 19.0859 110.992 17.5273 112.289 16.2305C113.586 14.9336 115.148 14.2852 116.977 14.2852C118.797 14.2852 120.355 14.9336 121.652 16.2305C122.949 17.5273 123.598 19.0859 123.598 20.9062C123.598 22.7344 122.949 24.2969 121.652 25.5938C120.355 26.8906 118.797 27.5391 116.977 27.5391Z" fill="#3A3945"/>
<path d="M132.188 17.0156C131.109 17.0156 130.191 17.3945 129.434 18.1523C128.668 18.918 128.285 19.8359 128.285 20.9062C128.285 21.9844 128.668 22.9062 129.434 23.6719C130.191 24.4297 131.109 24.8086 132.188 24.8086C133.266 24.8086 134.184 24.4297 134.941 23.6719C135.699 22.9062 136.078 21.9844 136.078 20.9062C136.078 19.8281 135.699 18.9102 134.941 18.1523C134.184 17.3945 133.266 17.0156 132.188 17.0156ZM132.188 27.5391C130.359 27.5391 128.797 26.8906 127.5 25.5938C126.203 24.2969 125.555 22.7344 125.555 20.9062C125.555 19.0859 126.203 17.5273 127.5 16.2305C128.797 14.9336 130.359 14.2852 132.188 14.2852C134.008 14.2852 135.566 14.9336 136.863 16.2305C138.16 17.5273 138.809 19.0859 138.809 20.9062C138.809 22.7344 138.16 24.2969 136.863 25.5938C135.566 26.8906 134.008 27.5391 132.188 27.5391Z" fill="#3A3945"/>
<path d="M152.812 27.375H149.461L145.594 21.8438L144.059 23.3789V27.375H141.328V9H144.059V19.5117L149.18 14.4141H153.059L147.562 19.875L152.812 27.375Z" fill="#3A3945"/>
<path d="M159.176 27.5391C158.098 27.5312 157.121 27.2734 156.246 26.7656C155.176 26.1328 154.422 25.0664 153.984 23.5664L156.598 22.8281C156.832 23.6328 157.195 24.1719 157.688 24.4453C158.117 24.6797 158.617 24.8008 159.188 24.8086C159.258 24.8086 159.336 24.8047 159.422 24.7969C159.508 24.7891 159.594 24.7773 159.68 24.7617C159.914 24.7227 160.121 24.6641 160.301 24.5859C160.762 24.3594 161.012 23.9883 161.051 23.4727C161.066 23.2539 160.996 23.0625 160.84 22.8984C160.535 22.5312 160 22.3242 159.234 22.2773C157.328 22.1523 155.945 21.6562 155.086 20.7891C154.727 20.4297 154.473 20.0234 154.324 19.5703C154.199 19.2188 154.137 18.8438 154.137 18.4453C154.137 17.1484 154.645 16.1055 155.66 15.3164C156.551 14.6289 157.621 14.2852 158.871 14.2852C160.355 14.2852 161.598 14.8125 162.598 15.8672C163.145 16.4609 163.578 17.1719 163.898 18L161.355 18.9375L161.004 18.2812C160.895 18.0859 160.766 17.9102 160.617 17.7539C160.141 17.2617 159.551 17.0156 158.848 17.0156C158.715 17.0234 158.598 17.0352 158.496 17.0508C158.262 17.082 158.031 17.1406 157.805 17.2266C157.18 17.4688 156.867 17.875 156.867 18.4453C156.867 18.75 157.098 19 157.559 19.1953C158.012 19.375 158.633 19.4922 159.422 19.5469C160.266 19.6016 161.012 19.793 161.66 20.1211C162.152 20.3789 162.574 20.7031 162.926 21.0938C163.566 21.8516 163.848 22.7148 163.77 23.6836C163.676 24.9336 163.145 25.9102 162.176 26.6133C161.34 27.2305 160.344 27.5391 159.188 27.5391H159.176Z" fill="#3A3945"/>
<defs>
<filter id="filter0_dd_1_6414" x="0" y="0" width="38" height="38" filterUnits="userSpaceOnUse" color-interpolation-filters="sRGB">
<feFlood flood-opacity="0" result="BackgroundImageFix"/>
<feColorMatrix in="SourceAlpha" type="matrix" values="0 0 0 0 0 0 0 0 0 0 0 0 0 0 0 0 0 0 127 0" result="hardAlpha"/>
<feOffset dy="1"/>
<feGaussianBlur stdDeviation="1"/>
<feColorMatrix type="matrix" values="0 0 0 0 0.0627451 0 0 0 0 0.0941176 0 0 0 0 0.156863 0 0 0 0.06 0"/>
<feBlend mode="normal" in2="BackgroundImageFix" result="effect1_dropShadow_1_6414"/>
<feColorMatrix in="SourceAlpha" type="matrix" values="0 0 0 0 0 0 0 0 0 0 0 0 0 0 0 0 0 0 127 0" result="hardAlpha"/>
<feOffset dy="1"/>
<feGaussianBlur stdDeviation="1.5"/>
<feColorMatrix type="matrix" values="0 0 0 0 0.0627451 0 0 0 0 0.0941176 0 0 0 0 0.156863 0 0 0 0.1 0"/>
<feBlend mode="normal" in2="effect1_dropShadow_1_6414" result="effect2_dropShadow_1_6414"/>
<feBlend mode="normal" in="SourceGraphic" in2="effect2_dropShadow_1_6414" result="shape"/>
</filter>
<filter id="filter1_b_1_6414" x="-2" y="17" width="42" height="22" filterUnits="userSpaceOnUse" color-interpolation-filters="sRGB">
<feFlood flood-opacity="0" result="BackgroundImageFix"/>
<feGaussianBlur in="BackgroundImageFix" stdDeviation="2.5"/>
<feComposite in2="SourceAlpha" operator="in" result="effect1_backgroundBlur_1_6414"/>
<feBlend mode="normal" in="SourceGraphic" in2="effect1_backgroundBlur_1_6414" result="shape"/>
</filter>
<linearGradient id="paint0_linear_1_6414" x1="19" y1="2" x2="19" y2="34" gradientUnits="userSpaceOnUse">
<stop stop-color="white"/>
<stop offset="1" stop-color="#D0D5DD"/>
</linearGradient>
</defs>
</svg>
