<svg width="89" height="17" viewBox="0 0 89 17" fill="none" xmlns="http://www.w3.org/2000/svg">
<path d="M11.4062 4.71875L15.875 5.375C16.25 5.4375 16.5625 5.6875 16.6875 6.0625C16.8125 6.40625 16.7188 6.8125 16.4375 7.0625L13.1875 10.2812L13.9688 14.8438C14.0312 15.2188 13.875 15.5938 13.5625 15.8125C13.25 16.0625 12.8438 16.0625 12.5 15.9062L8.5 13.75L4.46875 15.9062C4.15625 16.0625 3.71875 16.0625 3.4375 15.8125C3.125 15.5938 2.96875 15.2188 3.03125 14.8438L3.78125 10.2812L0.53125 7.0625C0.25 6.8125 0.15625 6.40625 0.28125 6.0625C0.40625 5.6875 0.71875 5.4375 1.09375 5.375L5.59375 4.71875L7.59375 0.5625C7.75 0.21875 8.09375 0 8.5 0C8.875 0 9.21875 0.21875 9.375 0.5625L11.4062 4.71875ZM29.4062 4.71875L33.875 5.375C34.25 5.4375 34.5625 5.6875 34.6875 6.0625C34.8125 6.40625 34.7188 6.8125 34.4375 7.0625L31.1875 10.2812L31.9688 14.8438C32.0312 15.2188 31.875 15.5938 31.5625 15.8125C31.25 16.0625 30.8438 16.0625 30.5 15.9062L26.5 13.75L22.4688 15.9062C22.1562 16.0625 21.7188 16.0625 21.4375 15.8125C21.125 15.5938 20.9688 15.2188 21.0312 14.8438L21.7812 10.2812L18.5312 7.0625C18.25 6.8125 18.1562 6.40625 18.2812 6.0625C18.4062 5.6875 18.7188 5.4375 19.0938 5.375L23.5938 4.71875L25.5938 0.5625C25.75 0.21875 26.0938 0 26.5 0C26.875 0 27.2188 0.21875 27.375 0.5625L29.4062 4.71875ZM47.4062 4.71875L51.875 5.375C52.25 5.4375 52.5625 5.6875 52.6875 6.0625C52.8125 6.40625 52.7188 6.8125 52.4375 7.0625L49.1875 10.2812L49.9688 14.8438C50.0312 15.2188 49.875 15.5938 49.5625 15.8125C49.25 16.0625 48.8438 16.0625 48.5 15.9062L44.5 13.75L40.4688 15.9062C40.1562 16.0625 39.7188 16.0625 39.4375 15.8125C39.125 15.5938 38.9688 15.2188 39.0312 14.8438L39.7812 10.2812L36.5312 7.0625C36.25 6.8125 36.1562 6.40625 36.2812 6.0625C36.4062 5.6875 36.7188 5.4375 37.0938 5.375L41.5938 4.71875L43.5938 0.5625C43.75 0.21875 44.0938 0 44.5 0C44.875 0 45.2188 0.21875 45.375 0.5625L47.4062 4.71875ZM65.4062 4.71875L69.875 5.375C70.25 5.4375 70.5625 5.6875 70.6875 6.0625C70.8125 6.40625 70.7188 6.8125 70.4375 7.0625L67.1875 10.2812L67.9688 14.8438C68.0312 15.2188 67.875 15.5938 67.5625 15.8125C67.25 16.0625 66.8438 16.0625 66.5 15.9062L62.5 13.75L58.4688 15.9062C58.1562 16.0625 57.7188 16.0625 57.4375 15.8125C57.125 15.5938 56.9688 15.2188 57.0312 14.8438L57.7812 10.2812L54.5312 7.0625C54.25 6.8125 54.1562 6.40625 54.2812 6.0625C54.4062 5.6875 54.7188 5.4375 55.0938 5.375L59.5938 4.71875L61.5938 0.5625C61.75 0.21875 62.0938 0 62.5 0C62.875 0 63.2188 0.21875 63.375 0.5625L65.4062 4.71875ZM83.4062 4.71875L87.875 5.375C88.25 5.4375 88.5625 5.6875 88.6875 6.0625C88.8125 6.40625 88.7188 6.8125 88.4375 7.0625L85.1875 10.2812L85.9688 14.8438C86.0312 15.2188 85.875 15.5938 85.5625 15.8125C85.25 16.0625 84.8438 16.0625 84.5 15.9062L80.5 13.75L76.4688 15.9062C76.1562 16.0625 75.7188 16.0625 75.4375 15.8125C75.125 15.5938 74.9688 15.2188 75.0312 14.8438L75.7812 10.2812L72.5312 7.0625C72.25 6.8125 72.1562 6.40625 72.2812 6.0625C72.4062 5.6875 72.7188 5.4375 73.0938 5.375L77.5938 4.71875L79.5938 0.5625C79.75 0.21875 80.0938 0 80.5 0C80.875 0 81.2188 0.21875 81.375 0.5625L83.4062 4.71875Z" fill="#FDB022"/>
</svg>
