<svg width="24" height="25" viewBox="0 0 24 25" fill="none" xmlns="http://www.w3.org/2000/svg">
<g id="Social icon">
<path id="Vector" d="M7.55016 22.2732C16.6045 22.2732 21.5583 14.7699 21.5583 8.26505C21.5583 8.05412 21.5536 7.83849 21.5442 7.62755C22.5079 6.93065 23.3395 6.06745 24 5.07849C23.1025 5.47779 22.1496 5.73858 21.1739 5.85193C22.2013 5.2361 22.9705 4.26867 23.3391 3.12896C22.3726 3.70175 21.3156 4.10581 20.2134 4.3238C19.4708 3.53475 18.489 3.01231 17.4197 2.83724C16.3504 2.66218 15.2532 2.84424 14.2977 3.35529C13.3423 3.86634 12.5818 4.6779 12.1338 5.66451C11.6859 6.65111 11.5754 7.75781 11.8195 8.81349C9.86249 8.71528 7.94794 8.2069 6.19998 7.32129C4.45203 6.43569 2.90969 5.19263 1.67297 3.67271C1.0444 4.75644 0.852057 6.03884 1.13503 7.25928C1.418 8.47973 2.15506 9.54664 3.19641 10.2432C2.41463 10.2184 1.64998 10.0079 0.965625 9.62912V9.69005C0.964925 10.8273 1.3581 11.9298 2.07831 12.81C2.79852 13.6901 3.80132 14.2938 4.91625 14.5182C4.19206 14.7163 3.43198 14.7452 2.69484 14.6026C3.00945 15.5806 3.62157 16.4361 4.44577 17.0495C5.26997 17.663 6.26512 18.0038 7.29234 18.0244C5.54842 19.3943 3.39417 20.1373 1.17656 20.1338C0.783287 20.1332 0.390399 20.1091 0 20.0616C2.25286 21.5069 4.87353 22.2746 7.55016 22.2732Z" fill="#98A2B3"/>
</g>
</svg>
